HIERARCHY
ROOT SimulationBone
{
	OFFSET 0.000000 0.000000 0.000000
	CHANNELS 6 Xposition Yposition Zposition Zrotation Yrotation Xrotation 
	JOINT Hips
	{
		OFFSET 0.000000 0.000000 0.000000
		CHANNELS 6 Xposition Yposition Zposition Zrotation Yrotation Xrotation 
		JOINT LeftUpLeg
		{
			OFFSET 0.103458 1.857831 10.548505
			CHANNELS 3 Zrotation Yrotation Xrotation
			JOINT LeftLeg
			{
				OFFSET 43.500000 -0.000031 0.000002
				CHANNELS 3 Zrotation Yrotation Xrotation
				JOINT LeftFoot
				{
					OFFSET 42.372200 0.000023 0.000003
					CHANNELS 3 Zrotation Yrotation Xrotation
					JOINT LeftToe
					{
						OFFSET 17.299997 -0.000001 -0.000010
						CHANNELS 3 Zrotation Yrotation Xrotation
						End Site
						{
							OFFSET 0.000000 0.000000 0.000000
						}
					}
				}
			}
		}
		JOINT RightUpLeg
		{
			OFFSET 0.103457 1.857828 -10.548510
			CHANNELS 3 Zrotation Yrotation Xrotation
			JOINT RightLeg
			{
				OFFSET 43.500046 -0.000015 0.000002
				CHANNELS 3 Zrotation Yrotation Xrotation
				JOINT RightFoot
				{
					OFFSET 42.372261 -0.000008 0.000023
					CHANNELS 3 Zrotation Yrotation Xrotation
					JOINT RightToe
					{
						OFFSET 17.299990 -0.000007 -0.000002
						CHANNELS 3 Zrotation Yrotation Xrotation
						End Site
						{
							OFFSET 0.000000 0.000000 0.000000
						}
					}
				}
			}
		}
		JOINT Spine
		{
			OFFSET 6.901967 -2.603726 -0.000001
			CHANNELS 3 Zrotation Yrotation Xrotation
			JOINT Spine1
			{
				OFFSET 12.588100 -0.000009 -0.000003
				CHANNELS 3 Zrotation Yrotation Xrotation
				JOINT Spine2
				{
					OFFSET 12.343202 0.000008 0.000008
					CHANNELS 3 Zrotation Yrotation Xrotation
					JOINT Neck
					{
						OFFSET 25.832897 -0.000015 -0.000004
						CHANNELS 3 Zrotation Yrotation Xrotation
						JOINT Head
						{
							OFFSET 11.766609 0.000013 -0.000006
							CHANNELS 3 Zrotation Yrotation Xrotation
							End Site
							{
								OFFSET 0.000000 0.000000 0.000000
							}
						}
					}
					JOINT LeftShoulder
					{
						OFFSET 19.745911 -1.480373 6.000098
						CHANNELS 3 Zrotation Yrotation Xrotation
						JOINT LeftArm
						{
							OFFSET 11.284123 -0.000007 -0.000032
							CHANNELS 3 Zrotation Yrotation Xrotation
							JOINT LeftForeArm
							{
								OFFSET 33.000050 0.000005 0.000031
								CHANNELS 3 Zrotation Yrotation Xrotation
								JOINT LeftHand
								{
									OFFSET 25.200008 0.000017 0.000013
									CHANNELS 3 Zrotation Yrotation Xrotation
									End Site
									{
										OFFSET 0.000000 0.000000 0.000000
									}
								}
							}
						}
					}
					JOINT RightShoulder
					{
						OFFSET 19.746092 -1.480379 -6.000077
						CHANNELS 3 Zrotation Yrotation Xrotation
						JOINT RightArm
						{
							OFFSET 11.284136 -0.000017 -0.000017
							CHANNELS 3 Zrotation Yrotation Xrotation
							JOINT RightForeArm
							{
								OFFSET 33.000099 0.000019 0.000015
								CHANNELS 3 Zrotation Yrotation Xrotation
								JOINT RightHand
								{
									OFFSET 25.199780 0.000140 0.000408
									CHANNELS 3 Zrotation Yrotation Xrotation
									End Site
									{
										OFFSET 0.000000 0.000000 0.000000
									}
								}
							}
						}
					}
				}
			}
		}
	}
}
MOTION
Frames: 9
Frame Time: 0.016667
297.975246 0.000000 87.271165 180.000000 83.178923 180.000000 0.250900 86.051170 1.550944 92.711763 5.605575 178.135914 179.411079 -5.589407 174.993203 -70.703399 1.797136 -3.118196 67.265287 0.350609 -4.972189 21.454548 0.003089 0.000005 156.509222 -2.615918 -174.489176 -41.959818 5.272367 4.064951 83.743398 -3.147247 -0.894030 21.454558 -0.003107 -0.000017 7.077975 1.834916 -0.750192 4.122028 3.695034 -1.435995 3.803331 3.686426 -1.458291 -3.192410 6.370040 -2.704298 -6.568696 -4.882774 -0.142573 -172.230336 -76.928593 -9.437082 -53.668484 51.354446 -17.104239 -89.811639 -4.793741 2.632019 -5.222056 -4.325873 31.613632 -156.810706 69.268026 25.282757 8.411328 -52.592449 -41.884942 -37.138278 18.073227 -1.612039 3.620707 12.067177 -3.922578 
297.967709 0.000000 85.345508 180.000000 84.250467 180.000000 0.326279 86.858169 1.352010 93.077526 5.248281 178.931472 176.215797 -5.532544 174.612599 -74.276690 1.911709 -3.436924 69.136607 1.002686 -4.001933 21.454546 0.003085 -0.000000 159.250517 -2.577359 -175.141538 -39.762684 5.324003 4.096645 83.895451 -3.140227 -0.766096 21.454558 -0.003110 -0.000017 7.133379 1.794771 -0.491472 4.241528 3.606083 -0.917928 3.922783 3.600625 -0.939716 -2.999693 5.908384 -2.406258 -6.434824 -4.264521 -0.115611 -170.732670 -76.319446 -10.963978 -49.222637 53.987704 -11.822593 -87.765776 -5.978646 2.615572 -4.744642 -3.083663 36.439263 -157.628714 69.490926 24.434231 5.552639 -54.353164 -39.861459 -37.062163 18.164800 -1.613791 4.511208 11.620734 -3.956347 
297.931511 0.000000 83.410341 180.000000 85.187876 180.000000 0.331333 87.611740 1.123529 93.215708 4.758373 179.518038 172.932877 -5.461903 174.302316 -76.788271 1.771994 -3.832815 69.739891 1.254631 -4.169076 21.454551 0.003090 0.000000 161.703950 -2.308397 -175.631648 -37.632781 5.286509 3.995397 83.975638 -3.041088 -0.631926 21.454558 -0.003106 -0.000017 7.150988 1.698674 -0.229575 4.285107 3.404526 -0.396866 3.966402 3.402213 -0.417445 -2.846564 5.578104 -2.324195 -6.472756 -4.069797 -0.157413 -168.526584 -75.565118 -13.218315 -44.414824 56.021872 -5.536067 -85.144796 -7.545575 2.618529 -4.189358 -3.487700 40.426673 -158.162305 69.852430 23.877101 2.397702 -55.930925 -38.443917 -37.496443 18.288083 -1.634897 4.929136 11.637797 -4.188494 
297.867835 0.000000 81.466019 180.000000 85.997352 180.000000 0.296146 88.309987 0.905944 93.200283 4.231910 179.934058 169.656497 -5.400542 173.939851 -78.367601 1.541916 -4.258537 69.693692 1.376966 -4.735038 21.454557 0.003097 0.000003 164.001640 -1.962088 -176.030964 -35.479231 5.180983 3.845621 83.973088 -2.903960 -0.475724 21.454558 -0.003102 -0.000017 7.145170 1.576296 0.034320 4.280842 3.150206 0.126409 3.962226 3.151042 0.107365 -2.743962 5.228558 -2.346435 -6.611820 -3.971460 -0.275898 -166.232222 -74.805052 -15.568400 -39.336026 57.593994 1.167692 -82.019359 -9.304204 2.609181 -3.899971 -4.774016 43.322976 -158.700728 70.289436 23.314282 -0.909111 -57.236708 -37.391792 -38.396636 18.492596 -1.672699 4.862631 11.882041 -4.783472 
297.777862 0.000000 79.512898 180.000000 86.685027 180.000000 0.252924 88.951012 0.737387 93.109450 3.759135 -179.782877 166.481080 -5.384008 173.406031 -79.146141 1.387972 -4.682157 69.624461 1.619333 -4.947333 21.454560 0.003100 0.000005 166.278469 -1.681904 -176.422625 -33.210530 5.022353 3.732649 83.876764 -2.782841 -0.281957 21.454560 -0.003103 -0.000017 7.130565 1.457180 0.299032 4.257887 2.902449 0.651149 3.939379 2.906448 0.633600 -2.704540 4.708345 -2.361926 -6.781992 -3.642574 -0.478691 -164.275583 -74.197523 -17.576611 -34.070311 58.895585 7.714805 -78.458607 -11.064423 2.573723 -4.077070 -6.159429 44.885014 -159.548095 70.734420 22.433841 -4.211759 -58.168184 -36.485862 -39.719506 18.827616 -1.727587 4.297427 12.108956 -5.913446 
297.662773 0.000000 77.551334 180.000000 87.256866 180.000000 0.226003 89.526262 0.637422 93.006224 3.390039 -179.604846 163.480239 -5.435616 172.667912 -79.231507 1.397818 -5.073065 69.940221 2.121055 -4.362681 21.454556 0.003094 0.000005 168.612788 -1.535410 -176.848833 -30.813630 4.823618 3.699436 83.701502 -2.705337 -0.046456 21.454562 -0.003113 -0.000018 7.120378 1.359247 0.563261 4.242908 2.697107 1.175808 3.924509 2.704284 1.159490 -2.751206 3.927447 -2.300008 -6.948029 -2.895708 -0.764680 -162.854134 -73.846880 -19.036942 -28.659911 60.068501 13.712186 -74.557367 -12.664249 2.517839 -4.611040 -7.065437 44.863313 -160.870384 71.162436 21.065888 -7.394150 -58.687285 -35.529069 -41.431286 19.298433 -1.802815 3.313783 12.103230 -7.689142 
297.523750 0.000000 75.581683 180.000000 87.718612 180.000000 0.202615 90.000557 0.557573 92.884390 3.026967 -179.536073 160.643208 -5.479396 172.021784 -78.629922 1.343705 -5.391545 70.154764 2.561809 -3.794812 21.454551 0.003090 0.000001 170.851663 -1.322503 -177.148620 -28.588908 4.616077 3.620447 83.566803 -2.594842 0.189173 21.454562 -0.003120 -0.000018 7.121047 1.254382 0.825417 4.248568 2.477884 1.696278 3.930301 2.488220 1.681276 -2.941355 3.042575 -2.251076 -7.203594 -2.102424 -1.093808 -161.782756 -73.585299 -20.138600 -23.330294 60.893054 19.129288 -70.513240 -14.048230 2.446617 -4.449826 -7.686961 42.962808 -162.221513 71.745684 19.668224 -10.585671 -59.051389 -34.298033 -43.528395 19.735171 -1.893781 2.354195 11.826173 -9.982742 
297.361973 0.000000 73.604299 180.000000 88.075751 180.000000 0.158977 90.340018 0.455682 92.725705 2.593062 -179.576466 157.946493 -5.444938 171.735555 -77.339775 1.010168 -5.591908 69.814068 2.633271 -4.043566 21.454546 0.003096 -0.000004 172.834617 -0.884316 -177.182956 -26.816668 4.453943 3.392469 83.585770 -2.390332 0.382262 21.454558 -0.003116 -0.000017 7.136116 1.118066 1.083437 4.281319 2.195642 2.207498 3.963223 2.209074 2.194201 -3.311650 2.237580 -2.305330 -7.607072 -1.640939 -1.420842 -160.905348 -73.227964 -21.043328 -18.474546 61.138229 23.829268 -66.520205 -15.163739 2.366198 -2.703962 -8.310904 39.090805 -163.196618 72.614708 18.656722 -13.965530 -59.445193 -32.551203 -46.007241 19.974600 -1.986107 1.788673 11.299673 -12.627918 
297.178626 0.000000 71.619539 180.000000 88.333501 180.000000 0.072171 90.542587 0.380029 92.541630 2.240228 -179.679372 155.403292 -5.492393 171.670822 -75.440442 0.549626 -5.597692 69.564984 2.476516 -4.550579 21.454545 0.003101 -0.000007 174.606601 -0.432496 -177.165299 -25.387890 4.426223 3.154842 83.739081 -2.193066 0.531741 21.454555 -0.003108 -0.000016 7.165535 0.986275 1.333694 4.341518 1.922261 2.703461 4.023612 1.938686 2.691818 -3.794746 1.560039 -2.397555 -7.966865 -1.353000 -1.718868 -160.237603 -72.816909 -21.734511 -14.221302 60.854928 27.652612 -62.647286 -15.859896 2.257535 -0.042394 -9.153396 34.072814 -164.175221 73.478379 17.644393 -17.356760 -59.523095 -30.336865 -48.850233 20.053031 -2.079813 1.333998 10.478732 -15.527510 
